<svg xmlns="http://www.w3.org/2000/svg" viewBox="0 0 172.9 172.9" enable-background="new 0 0 172.9 172.9"><path fill="#fff" d="M127.8 86.5c0 19-34.6 78.8-36.2 81.2-.6.9-1.5 1.2-2.5 1.2h-5.5c-.9 0-1.8-.6-2.5-1.2-1.2-2.5-36.2-59.8-36.2-81.2 0-18.1 11.6-33.1 27.6-38.9v-10.8h-2.8c-1.2 0-2.1-.9-2.8-1.8l-8-27.6c-.3-.9 0-1.8.3-2.5.6-.6 1.2-1.2 2.1-1.2h49.7c.9 0 1.8.3 2.1 1.2.6.6.6 1.5.3 2.5l-8.3 27.6c.3.9-.9 1.8-2.1 1.8h-2.8v10.7c16 5.5 27.6 20.9 27.6 39zm-41.3 13.8c4.6 0 8.3-3.7 8.3-8.3s-3.7-8.3-8.3-8.3c-4.6 0-8.3 3.7-8.3 8.3s3.7 8.3 8.3 8.3zm-35.9-13.8c0 17.2 25.1 61.3 33.1 74.5v-55.5c-6.1-1.2-11-6.7-11-13.5 0-7.7 6.1-13.8 13.8-13.8s13.8 6.1 13.8 13.8c0 6.7-4.6 12.3-11 13.5v55.5c11-19.3 33.1-61 33.1-74.5 0-19.6-15.9-35.9-35.9-35.9s-35.9 15.9-35.9 35.9zm57-77.3h-42.3l6.7 22.1h29.1l6.5-22.1zm-12.9 27.6h-16.5v9.2c2.8-.6 5.5-.9 8.3-.9s5.5.3 8.3.9v-9.2zm-5.5 134h-5.5c-1.5 0-2.8-.6-3.7-2.1-3.7-6.1-36.5-60.7-36.5-82.2 0-17.8 11-33.7 27.6-40.2v-8h-1.2c-1.8 0-3.7-1.2-4-3.1l-8.3-27.5c-.3-1.2-.3-2.8.6-3.7.9-1.2 2.1-1.8 3.4-1.8h49.7c1.2 0 2.8.6 3.4 1.8.9 1.2.9 2.5.6 3.7l-8.3 27.6c-.6 1.8-2.1 3.1-4 3.1h-1.2v8c16.6 6.4 27.6 22.4 27.6 40.2 0 19-32.8 75.7-36.5 82.2-.6 1-2.2 2-3.7 2zm-27.6-165.6c-.3 0-.6 0-.9.6-.3.3-.3.6-.3.9l8.3 27.6c.3.6.6.9 1.2.9h4.3v13.2l-.9.3c-15.9 5.5-26.7 20.8-26.7 37.4 0 16.9 22.7 58.6 36.2 80.6.3.3.6.6.9.6h5.5c.3 0 .9-.3.9-.6 1.5-2.5 35.9-62.2 35.9-80.6 0-16.9-10.7-31.9-26.7-37.4l-.9-.3v-13.1h4.3c.6 0 .9-.3 1.2-.9l8.3-27.6c0-.3 0-.9-.3-1.2s-.6-.6-.9-.6h-49.4v.2zm26.1 161.3v-62.2l1.2-.3c5.8-1.2 9.8-6.1 9.8-12 0-6.7-5.5-12.3-12.3-12.3-6.7 0-12.3 5.5-12.3 12.3 0 5.8 4 10.7 9.8 12l1.2.3v62.2l-2.8-4.9c-8-13.2-33.4-57.6-33.4-75.1 0-20.5 16.9-37.4 37.4-37.4s37.4 16.9 37.4 37.4c0 16.2-29.7 69.3-33.4 75.1l-2.6 4.9zm-1.2-114.4c-19 0-34.3 15.3-34.3 34.3 0 15 20.2 52.1 30 69v-48.7c-6.4-1.8-11-8-11-14.7 0-8.6 6.7-15.3 15.3-15.3s15.3 6.7 15.3 15.3c0 6.7-4.6 12.9-11 14.7v48.4c12.3-22.1 30-57 30-68.7 0-19-15.3-34.3-34.3-34.3zm0 49.7c-5.5 0-9.8-4.3-9.8-9.8s4.3-9.8 9.8-9.8 9.8 4.3 9.8 9.8-4.3 9.8-9.8 9.8zm0-16.6c-3.7 0-6.7 3.1-6.7 6.7s3.1 6.7 6.7 6.7c3.7 0 6.7-3.1 6.7-6.7s-3.1-6.7-6.7-6.7zm9.8-37.4l-1.8-.3c-5.2-.9-10.7-.9-15.9 0l-1.8.3v-12.5h19.6v12.5zm-16.6-9.5v5.8c4.6-.6 9.2-.6 13.5 0v-5.8h-13.5zm22.4-5.5h-31.3l-7.3-25.1h46.3l-7.7 25.1zm-28.8-3.1h26.7l5.8-19h-38.4l5.9 19zM89.2 170.5h-5.5c-1.5 0-2.8-.6-3.4-1.8-3.7-6.4-36.5-60.7-36.5-82.2 0-17.8 11-33.7 27.6-39.9v-8.6h-1.5c-1.8 0-3.4-1.2-4-2.8l-8.3-27.5c-.3-1.2 0-2.5.6-3.7.9-.9 2.1-1.5 3.4-1.5h49.7c1.2 0 2.5.6 3.4 1.5.9.9.9 2.5.6 3.7l-8.3 27.6c-.6 1.8-2.1 2.8-4 2.8h-1.5v8.6c16.6 6.1 27.6 22.1 27.6 39.9 0 19.3-34.9 79.4-36.5 82.2-.6.7-1.9 1.7-3.4 1.7zm-27.6-165.6c-.3 0-.9.3-1.2.6-.3.3-.3.9 0 1.2l8.3 27.6c.3.6.6.9 1.5.9h4v12.9l-.9.3c-16 5.6-26.7 20.9-26.7 37.7 0 21.2 34.6 78.2 36.2 80.6.3.3.6.6 1.2.6h5.5c.6 0 .9-.3 1.2-.6 12.6-21.5 36.2-65.9 36.2-80.6 0-16.9-10.7-32.2-26.7-37.7l-.9-.3v-12.8h4c.6 0 1.2-.3 1.5-.9l8.3-27.6c0-.3 0-.9-.3-1.2s-.6-.6-1.2-.6c0-.1-50-.1-50-.1zm26.4 161v-61.6h.9c5.8-1.3 10.1-6.5 10.1-12.3 0-6.7-5.5-12.6-12.6-12.6s-12.6 5.5-12.6 12.6c0 5.8 4.3 11 10.1 12.3l.9.3v61.3l-2.5-4c-7.7-13.5-33.1-57.9-33.1-75.4 0-20.5 16.6-37.1 37.1-37.1s37.1 16.6 37.1 37.1c0 15.9-29.7 69-33.4 75.1l-2 4.3zm-1.5-114.1c-19 0-34.6 15.6-34.6 34.6 0 15.3 20.8 53.3 30.4 69.9v-50c-6.4-1.8-11-7.7-11-14.4 0-8.3 6.7-15 15-15s15 6.7 15 15c0 6.7-4.6 12.9-11 14.4v49.4c12.3-22.1 30.4-57.6 30.4-69.6.4-18.7-15.2-34.3-34.2-34.3zm0 49.7c-5.2 0-9.5-4.3-9.5-9.5s4.3-9.5 9.5-9.5 9.5 4.3 9.5 9.5-4.3 9.5-9.5 9.5zm0-16.6c-4 0-7.1 3.1-7.1 7.1s3.1 7.1 7.1 7.1 7.1-3.1 7.1-7.1-3.2-7.1-7.1-7.1zm9.5-37.4l-1.5-.3c-5.2-.9-10.7-.9-15.9 0l-1.6.3v-12h19v12zm-9.5-3.7c2.5 0 4.6.3 7.1.6v-6.1h-13.9v6.1c2.2-.6 4.6-.6 6.8-.6zm15.6-11.3h-31l-7.3-24.5h45.7l-7.4 24.5zm-29.1-2.5h27l5.8-19.3h-38.7l5.9 19.3zm16.2 142h-5.5c-1.8 0-3.7-.9-4.9-2.8-3.7-6.1-36.8-61-36.8-82.8 0-17.8 11-34 27.6-40.8v-5.8c-2.5 0-4.6-1.5-5.2-4l-8.3-27.5c-.3-1.8 0-3.7 1.2-5.2.9-1.5 2.5-2.1 4.3-2.1h49.7c1.8 0 3.4.9 4.6 2.1.9 1.5 1.2 3.4.9 4.9l-8.3 27.6c-.6 2.5-2.8 4-5.2 4v5.8c16.6 6.7 27.6 23 27.6 40.8 0 19.9-35.3 80.3-36.5 82.8-1.2 1.8-3 3-5.2 3zm-2.7-118.7c-18.1 0-33.1 14.7-33.1 33.1 0 13.5 17.5 46.3 27.6 64.1v-42.9c-6.4-2.5-11-8.6-11-15.6 0-9.2 7.4-16.6 16.6-16.6s16.4 7.4 16.4 16.6c0 7.1-4.6 13.2-11 15.6v42.3c13.2-24.2 27.6-53.7 27.6-63.5 0-18.3-14.8-33.1-33.1-33.1zm0 33.2c-3.1 0-5.5 2.5-5.5 5.5s2.5 5.5 5.5 5.5 5.5-2.5 5.5-5.5-2.5-5.5-5.5-5.5zm0-44.2c1.8 0 3.7 0 5.5.3v-3.1h-11v3.1c1.8-.3 3.6-.3 5.5-.3zm-12.3-13.8h24.8l4.9-16.6h-34.6l4.9 16.6z"/></svg>